<?xml version="1.0" encoding="iso-8859-1"?>
<!-- Generator: Adobe Illustrator 19.0.0, SVG Export Plug-In . SVG Version: 6.00 Build 0)  -->
<svg version="1.1" id="Capa_1" xmlns="http://www.w3.org/2000/svg" xmlns:xlink="http://www.w3.org/1999/xlink" x="0px" y="0px"
	 viewBox="0 0 512 512" style="enable-background:new 0 0 512 512;" xml:space="preserve">
<g>
	<g>
		<g>
			<path d="M256,138.667c5.896,0,10.667-4.771,10.667-10.667v-21.333C266.667,100.771,261.896,96,256,96
				s-10.667,4.771-10.667,10.667V128C245.333,133.896,250.104,138.667,256,138.667z"/>
			<path d="M169.24,127.052c-2.958-5.115-9.51-6.875-14.573-3.906c-5.104,2.948-6.854,9.469-3.906,14.573l10.667,18.479
				c1.979,3.417,5.563,5.333,9.25,5.333c1.813,0,3.646-0.458,5.323-1.427c5.104-2.948,6.854-9.469,3.906-14.573L169.24,127.052z"/>
			<path d="M113.531,204.094l-18.479-10.667c-5.115-2.948-11.625-1.198-14.573,3.906c-2.948,5.104-1.198,11.625,3.906,14.573
				l18.479,10.667c1.677,0.969,3.51,1.427,5.323,1.427c3.688,0,7.271-1.917,9.25-5.333
				C120.385,213.563,118.635,207.042,113.531,204.094z"/>
			<path d="M427.615,385.427l-18.479-10.667c-5.104-2.938-11.625-1.188-14.573,3.906c-2.948,5.104-1.198,11.625,3.906,14.573
				l18.479,10.667c1.677,0.969,3.51,1.427,5.323,1.427c3.688,0,7.271-1.917,9.25-5.333
				C434.469,394.896,432.719,388.375,427.615,385.427z"/>
			<path d="M96,298.667C96,292.771,91.229,288,85.333,288H64c-5.896,0-10.667,4.771-10.667,10.667
				c0,5.896,4.771,10.667,10.667,10.667h21.333C91.229,309.333,96,304.563,96,298.667z"/>
			<path d="M416,298.667c0,5.896,4.771,10.667,10.667,10.667H448c5.896,0,10.667-4.771,10.667-10.667
				c0-5.896-4.771-10.667-10.667-10.667h-21.333C420.771,288,416,292.771,416,298.667z"/>
			<path d="M102.865,374.76l-18.479,10.667c-5.104,2.948-6.854,9.469-3.906,14.573c1.979,3.417,5.563,5.333,9.25,5.333
				c1.813,0,3.646-0.458,5.323-1.427l18.479-10.667c5.104-2.948,6.854-9.469,3.906-14.573
				C114.479,373.573,107.948,371.823,102.865,374.76z"/>
			<path d="M416.948,193.427l-18.479,10.667c-5.104,2.948-6.854,9.469-3.906,14.573c1.979,3.417,5.563,5.333,9.25,5.333
				c1.813,0,3.646-0.458,5.323-1.427l18.479-10.667c5.104-2.948,6.854-9.469,3.906-14.573
				C428.552,192.229,422.021,190.479,416.948,193.427z"/>
			<path d="M357.333,123.146c-5.104-2.969-11.625-1.208-14.573,3.906l-10.667,18.479c-2.948,5.104-1.198,11.625,3.906,14.573
				c1.677,0.969,3.51,1.427,5.323,1.427c3.688,0,7.271-1.917,9.25-5.333l10.667-18.479
				C364.188,132.615,362.438,126.094,357.333,123.146z"/>
			<path d="M266.625,180.396c-0.479-5.5-5.094-9.729-10.625-9.729s-10.146,4.229-10.625,9.729l-18.927,215.646
				c-8.385,8.042-13.115,18.958-13.115,30.625c0,23.531,19.135,42.667,42.667,42.667s42.667-19.135,42.667-42.667
				c0-11.667-4.729-22.583-13.115-30.625L266.625,180.396z"/>
			<path d="M256,42.667c-141.156,0-256,114.844-256,256c0,42.75,10.771,85.094,31.156,122.448c1.354,2.479,3.646,4.323,6.354,5.115
				c2.708,0.792,5.625,0.469,8.125-0.865l18.729-10.229c5.167-2.823,7.073-9.302,4.25-14.479
				c-16.979-31.094-25.948-66.365-25.948-101.99c0-117.635,95.698-213.333,213.333-213.333s213.333,95.698,213.333,213.333
				c0,35.625-8.969,70.896-25.948,101.99c-2.823,5.177-0.917,11.656,4.25,14.479l18.729,10.229c1.583,0.865,3.344,1.302,5.115,1.302
				c1.01,0,2.021-0.146,3.01-0.438c2.708-0.792,5-2.635,6.354-5.115C501.229,383.76,512,341.417,512,298.667
				C512,157.51,397.156,42.667,256,42.667z"/>
		</g>
	</g>
</g>
<g>
</g>
<g>
</g>
<g>
</g>
<g>
</g>
<g>
</g>
<g>
</g>
<g>
</g>
<g>
</g>
<g>
</g>
<g>
</g>
<g>
</g>
<g>
</g>
<g>
</g>
<g>
</g>
<g>
</g>
</svg>
