<svg xmlns="http://www.w3.org/2000/svg" xmlns:xlink="http://www.w3.org/1999/xlink" version="1.1" x="0px" y="0px" viewBox="0 0 512 640" enable-background="new 0 0 512 512" xml:space="preserve"><g><g><path d="M106,199.7c14,0,110.5,0,131.3,0s37.5-16.8,37.5-37.5s-16.8-37.5-37.5-37.5c-0.3,0-0.6,0.1-1,0.1c0.6-3.1,1-6.2,1-9.5    c0-25.9-21-46.9-46.9-46.9c-16.7,0-31.3,8.8-39.6,22c-5.2-2-10.8-3.2-16.7-3.2c-24.4,0-44.2,18.7-46.4,42.5    c-11.4,6.4-19.2,18.5-19.2,32.5C68.5,183,85.3,199.7,106,199.7z"/></g><g><path d="M396.9,349.8c6.7-13.7,10.6-29.1,10.6-45.4c0-57-46.2-103.1-103.1-103.1c-48.1,0-88.5,33-99.8,77.6    c-7.4-2.5-15.3-4.1-23.5-4.1c-41.4,0-75,33.6-75,75c0,0.3,0.1,0.6,0.1,0.9c-21.4,4.3-37.6,23.2-37.6,45.9    c0,25.9,21,46.9,46.9,46.9c17.3,0,255.4,0,281.3,0c25.9,0,46.9-21,46.9-46.9C443.5,370.8,422.6,349.9,396.9,349.8z"/></g></g><text x="0" y="527" fill="#000000" font-size="5px" font-weight="bold" font-family="'Helvetica Neue', Helvetica, Arial-Unicode, Arial, Sans-serif">Created by Creative Stall</text><text x="0" y="532" fill="#000000" font-size="5px" font-weight="bold" font-family="'Helvetica Neue', Helvetica, Arial-Unicode, Arial, Sans-serif">from the Noun Project</text></svg>