<svg xmlns="http://www.w3.org/2000/svg" xmlns:xlink="http://www.w3.org/1999/xlink" version="1.1" x="0px" y="0px" viewBox="0 0 512 640" enable-background="new 0 0 512 512" xml:space="preserve"><g><path d="M277.5,95.9L256,68.5l-11.1,33c-17.8,52.9-50.9,85.9-74.3,115.6c-24.5,31.2-45.7,58.2-45.7,95.4c0,72.2,58.8,131,131,131   c72.2,0,131-58.8,131-131C387,246,289.3,111.2,277.5,95.9z M256,406.1C256,406.1,256,406.1,256,406.1l-0.1-37.4c0,0,0,0,0.1,0   c31,0,56.1-25.2,56.1-56.1l0,0h37.4v0C349.6,364.1,307.6,406.1,256,406.1z"/></g><text x="0" y="527" fill="#000000" font-size="5px" font-weight="bold" font-family="'Helvetica Neue', Helvetica, Arial-Unicode, Arial, Sans-serif">Created by Creative Stall</text><text x="0" y="532" fill="#000000" font-size="5px" font-weight="bold" font-family="'Helvetica Neue', Helvetica, Arial-Unicode, Arial, Sans-serif">from the Noun Project</text></svg>