<svg xmlns="http://www.w3.org/2000/svg" xmlns:xlink="http://www.w3.org/1999/xlink" version="1.1" x="0px" y="0px" viewBox="0 0 512 640" enable-background="new 0 0 512 512" xml:space="preserve"><g><g><rect x="237.2" y="68.5" width="37.6" height="56.4"/></g><g><rect x="237.2" y="387.1" width="37.6" height="56.4"/></g><g><rect x="387.1" y="237.2" width="56.4" height="37.6"/></g><g><rect x="68.5" y="237.2" width="56.4" height="37.6"/></g><g><rect x="349.9" y="115.1" transform="matrix(0.7071 0.7071 -0.7071 0.7071 209.3595 -218.6766)" width="37.6" height="56.4"/></g><g><rect x="124.6" y="340.4" transform="matrix(-0.7071 -0.7071 0.7071 -0.7071 -15.8934 730.6729)" width="37.6" height="56.4"/></g><g><polygon points="335.4,362 375.3,401.9 401.9,375.3 362,335.4   "/></g><g><polygon points="176.6,150 136.7,110.1 110.1,136.7 150,176.6   "/></g><g><circle cx="256" cy="255.7" r="93.9"/></g></g><text x="0" y="527" fill="#000000" font-size="5px" font-weight="bold" font-family="'Helvetica Neue', Helvetica, Arial-Unicode, Arial, Sans-serif">Created by Creative Stall</text><text x="0" y="532" fill="#000000" font-size="5px" font-weight="bold" font-family="'Helvetica Neue', Helvetica, Arial-Unicode, Arial, Sans-serif">from the Noun Project</text></svg>